G04 #@! TF.GenerationSoftware,KiCad,Pcbnew,(5.1.2)-1*
G04 #@! TF.CreationDate,2019-09-24T21:04:57+01:00*
G04 #@! TF.ProjectId,PET_IEEE,5045545f-4945-4454-952e-6b696361645f,rev?*
G04 #@! TF.SameCoordinates,Original*
G04 #@! TF.FileFunction,Legend,Top*
G04 #@! TF.FilePolarity,Positive*
%FSLAX46Y46*%
G04 Gerber Fmt 4.6, Leading zero omitted, Abs format (unit mm)*
G04 Created by KiCad (PCBNEW (5.1.2)-1) date 2019-09-24 21:04:57*
%MOMM*%
%LPD*%
G04 APERTURE LIST*
%ADD10C,0.150000*%
%ADD11C,0.120000*%
G04 APERTURE END LIST*
D10*
X131770380Y-116300285D02*
X131770380Y-116871714D01*
X131770380Y-116586000D02*
X130770380Y-116586000D01*
X130913238Y-116681238D01*
X131008476Y-116776476D01*
X131056095Y-116871714D01*
X4647001Y-2361001D02*
G75*
G03X4647001Y-2361001I-2286000J0D01*
G01*
D11*
X116784999Y-108230000D02*
X119214999Y-108230000D01*
X116784999Y-107870000D02*
X116784999Y-108230000D01*
X114355000Y-107870000D02*
X116784999Y-107870000D01*
X114355000Y-108230000D02*
X114355000Y-107870000D01*
X111925000Y-108230000D02*
X114355000Y-108230000D01*
X111925001Y-82270000D02*
X111925000Y-108230000D01*
X119215000Y-82270000D02*
X111925001Y-82270000D01*
X119214999Y-108230000D02*
X119215000Y-82270000D01*
X186630000Y-96460000D02*
X187960000Y-96460000D01*
X186630000Y-97790000D02*
X186630000Y-96460000D01*
X186630000Y-99060000D02*
X189290000Y-99060000D01*
X189290000Y-99060000D02*
X189290000Y-111820000D01*
X186630000Y-99060000D02*
X186630000Y-111820000D01*
X186630000Y-111820000D02*
X189290000Y-111820000D01*
D10*
X201168000Y-115316000D02*
X201168000Y-69596000D01*
X196088000Y-69596000D02*
X196088000Y-112776000D01*
X201168000Y-69596000D02*
X196088000Y-69596000D01*
X201168000Y-115316000D02*
X198628000Y-115316000D01*
X195808000Y-114046000D02*
X195808000Y-115596000D01*
X198628000Y-115316000D02*
X198628000Y-112776000D01*
X198628000Y-112776000D02*
X196088000Y-112776000D01*
X195808000Y-115596000D02*
X197358000Y-115596000D01*
X132588000Y-120396000D02*
X150368000Y-120396000D01*
X150368000Y-120396000D02*
X150368000Y-117856000D01*
X150368000Y-117856000D02*
X132588000Y-117856000D01*
X129768000Y-120676000D02*
X131318000Y-120676000D01*
X132588000Y-120396000D02*
X132588000Y-117856000D01*
X131318000Y-117576000D02*
X129768000Y-117576000D01*
X129768000Y-117576000D02*
X129768000Y-120676000D01*
X155448000Y-120396000D02*
X173228000Y-120396000D01*
X173228000Y-120396000D02*
X173228000Y-117856000D01*
X173228000Y-117856000D02*
X155448000Y-117856000D01*
X152628000Y-120676000D02*
X154178000Y-120676000D01*
X155448000Y-120396000D02*
X155448000Y-117856000D01*
X154178000Y-117576000D02*
X152628000Y-117576000D01*
X152628000Y-117576000D02*
X152628000Y-120676000D01*
X178308000Y-120396000D02*
X196088000Y-120396000D01*
X196088000Y-120396000D02*
X196088000Y-117856000D01*
X196088000Y-117856000D02*
X178308000Y-117856000D01*
X175488000Y-120676000D02*
X177038000Y-120676000D01*
X178308000Y-120396000D02*
X178308000Y-117856000D01*
X177038000Y-117576000D02*
X175488000Y-117576000D01*
X175488000Y-117576000D02*
X175488000Y-120676000D01*
X123444000Y-72136000D02*
X146304000Y-72136000D01*
X146304000Y-72136000D02*
X146304000Y-69596000D01*
X146304000Y-69596000D02*
X123444000Y-69596000D01*
X120624000Y-72416000D02*
X122174000Y-72416000D01*
X123444000Y-72136000D02*
X123444000Y-69596000D01*
X122174000Y-69316000D02*
X120624000Y-69316000D01*
X120624000Y-69316000D02*
X120624000Y-72416000D01*
X150368000Y-72136000D02*
X168148000Y-72136000D01*
X168148000Y-72136000D02*
X168148000Y-69596000D01*
X168148000Y-69596000D02*
X150368000Y-69596000D01*
X147548000Y-72416000D02*
X149098000Y-72416000D01*
X150368000Y-72136000D02*
X150368000Y-69596000D01*
X149098000Y-69316000D02*
X147548000Y-69316000D01*
X147548000Y-69316000D02*
X147548000Y-72416000D01*
X173228000Y-72136000D02*
X191008000Y-72136000D01*
X191008000Y-72136000D02*
X191008000Y-69596000D01*
X191008000Y-69596000D02*
X173228000Y-69596000D01*
X170408000Y-72416000D02*
X171958000Y-72416000D01*
X173228000Y-72136000D02*
X173228000Y-69596000D01*
X171958000Y-69316000D02*
X170408000Y-69316000D01*
X170408000Y-69316000D02*
X170408000Y-72416000D01*
X117856000Y-119126000D02*
G75*
G03X117856000Y-119126000I-2286000J0D01*
G01*
X171704000Y-114046000D02*
G75*
G03X171704000Y-114046000I-2286000J0D01*
G01*
X202184000Y-119126000D02*
G75*
G03X202184000Y-119126000I-2286000J0D01*
G01*
X117856000Y-70866000D02*
G75*
G03X117856000Y-70866000I-2286000J0D01*
G01*
X195834000Y-70866000D02*
G75*
G03X195834000Y-70866000I-2286000J0D01*
G01*
X1146715Y234618D02*
X1146715Y1234618D01*
X1527667Y1234618D01*
X1622905Y1186999D01*
X1670524Y1139379D01*
X1718143Y1044141D01*
X1718143Y901284D01*
X1670524Y806046D01*
X1622905Y758427D01*
X1527667Y710808D01*
X1146715Y710808D01*
X2670524Y234618D02*
X2099096Y234618D01*
X2384810Y234618D02*
X2384810Y1234618D01*
X2289572Y1091760D01*
X2194334Y996522D01*
X2099096Y948903D01*
X3051477Y1139379D02*
X3099096Y1186999D01*
X3194334Y1234618D01*
X3432429Y1234618D01*
X3527667Y1186999D01*
X3575286Y1139379D01*
X3622905Y1044141D01*
X3622905Y948903D01*
X3575286Y806046D01*
X3003858Y234618D01*
X3622905Y234618D01*
X115236666Y-108682380D02*
X115236666Y-109396666D01*
X115189047Y-109539523D01*
X115093809Y-109634761D01*
X114950952Y-109682380D01*
X114855714Y-109682380D01*
X116236666Y-109682380D02*
X115665238Y-109682380D01*
X115950952Y-109682380D02*
X115950952Y-108682380D01*
X115855714Y-108825238D01*
X115760476Y-108920476D01*
X115665238Y-108968095D01*
X187626666Y-94912380D02*
X187626666Y-95626666D01*
X187579047Y-95769523D01*
X187483809Y-95864761D01*
X187340952Y-95912380D01*
X187245714Y-95912380D01*
X188055238Y-95007619D02*
X188102857Y-94960000D01*
X188198095Y-94912380D01*
X188436190Y-94912380D01*
X188531428Y-94960000D01*
X188579047Y-95007619D01*
X188626666Y-95102857D01*
X188626666Y-95198095D01*
X188579047Y-95340952D01*
X188007619Y-95912380D01*
X188626666Y-95912380D01*
X195016380Y-93194095D02*
X194016380Y-93194095D01*
X194016380Y-92813142D01*
X194064000Y-92717904D01*
X194111619Y-92670285D01*
X194206857Y-92622666D01*
X194349714Y-92622666D01*
X194444952Y-92670285D01*
X194492571Y-92717904D01*
X194540190Y-92813142D01*
X194540190Y-93194095D01*
X195016380Y-91670285D02*
X195016380Y-92241714D01*
X195016380Y-91956000D02*
X194016380Y-91956000D01*
X194159238Y-92051238D01*
X194254476Y-92146476D01*
X194302095Y-92241714D01*
X139469904Y-116784380D02*
X139469904Y-115784380D01*
X139850857Y-115784380D01*
X139946095Y-115832000D01*
X139993714Y-115879619D01*
X140041333Y-115974857D01*
X140041333Y-116117714D01*
X139993714Y-116212952D01*
X139946095Y-116260571D01*
X139850857Y-116308190D01*
X139469904Y-116308190D01*
X140422285Y-115879619D02*
X140469904Y-115832000D01*
X140565142Y-115784380D01*
X140803238Y-115784380D01*
X140898476Y-115832000D01*
X140946095Y-115879619D01*
X140993714Y-115974857D01*
X140993714Y-116070095D01*
X140946095Y-116212952D01*
X140374666Y-116784380D01*
X140993714Y-116784380D01*
X162329904Y-117038380D02*
X162329904Y-116038380D01*
X162710857Y-116038380D01*
X162806095Y-116086000D01*
X162853714Y-116133619D01*
X162901333Y-116228857D01*
X162901333Y-116371714D01*
X162853714Y-116466952D01*
X162806095Y-116514571D01*
X162710857Y-116562190D01*
X162329904Y-116562190D01*
X163234666Y-116038380D02*
X163853714Y-116038380D01*
X163520380Y-116419333D01*
X163663238Y-116419333D01*
X163758476Y-116466952D01*
X163806095Y-116514571D01*
X163853714Y-116609809D01*
X163853714Y-116847904D01*
X163806095Y-116943142D01*
X163758476Y-116990761D01*
X163663238Y-117038380D01*
X163377523Y-117038380D01*
X163282285Y-116990761D01*
X163234666Y-116943142D01*
X185189904Y-116784380D02*
X185189904Y-115784380D01*
X185570857Y-115784380D01*
X185666095Y-115832000D01*
X185713714Y-115879619D01*
X185761333Y-115974857D01*
X185761333Y-116117714D01*
X185713714Y-116212952D01*
X185666095Y-116260571D01*
X185570857Y-116308190D01*
X185189904Y-116308190D01*
X186618476Y-116117714D02*
X186618476Y-116784380D01*
X186380380Y-115736761D02*
X186142285Y-116451047D01*
X186761333Y-116451047D01*
X132865904Y-74112380D02*
X132865904Y-73112380D01*
X133246857Y-73112380D01*
X133342095Y-73160000D01*
X133389714Y-73207619D01*
X133437333Y-73302857D01*
X133437333Y-73445714D01*
X133389714Y-73540952D01*
X133342095Y-73588571D01*
X133246857Y-73636190D01*
X132865904Y-73636190D01*
X134342095Y-73112380D02*
X133865904Y-73112380D01*
X133818285Y-73588571D01*
X133865904Y-73540952D01*
X133961142Y-73493333D01*
X134199238Y-73493333D01*
X134294476Y-73540952D01*
X134342095Y-73588571D01*
X134389714Y-73683809D01*
X134389714Y-73921904D01*
X134342095Y-74017142D01*
X134294476Y-74064761D01*
X134199238Y-74112380D01*
X133961142Y-74112380D01*
X133865904Y-74064761D01*
X133818285Y-74017142D01*
X157249904Y-74112380D02*
X157249904Y-73112380D01*
X157630857Y-73112380D01*
X157726095Y-73160000D01*
X157773714Y-73207619D01*
X157821333Y-73302857D01*
X157821333Y-73445714D01*
X157773714Y-73540952D01*
X157726095Y-73588571D01*
X157630857Y-73636190D01*
X157249904Y-73636190D01*
X158678476Y-73112380D02*
X158488000Y-73112380D01*
X158392761Y-73160000D01*
X158345142Y-73207619D01*
X158249904Y-73350476D01*
X158202285Y-73540952D01*
X158202285Y-73921904D01*
X158249904Y-74017142D01*
X158297523Y-74064761D01*
X158392761Y-74112380D01*
X158583238Y-74112380D01*
X158678476Y-74064761D01*
X158726095Y-74017142D01*
X158773714Y-73921904D01*
X158773714Y-73683809D01*
X158726095Y-73588571D01*
X158678476Y-73540952D01*
X158583238Y-73493333D01*
X158392761Y-73493333D01*
X158297523Y-73540952D01*
X158249904Y-73588571D01*
X158202285Y-73683809D01*
X180109904Y-74112380D02*
X180109904Y-73112380D01*
X180490857Y-73112380D01*
X180586095Y-73160000D01*
X180633714Y-73207619D01*
X180681333Y-73302857D01*
X180681333Y-73445714D01*
X180633714Y-73540952D01*
X180586095Y-73588571D01*
X180490857Y-73636190D01*
X180109904Y-73636190D01*
X181014666Y-73112380D02*
X181681333Y-73112380D01*
X181252761Y-74112380D01*
M02*
