G04 #@! TF.GenerationSoftware,KiCad,Pcbnew,(5.1.2)-1*
G04 #@! TF.CreationDate,2019-09-24T21:04:57+01:00*
G04 #@! TF.ProjectId,PET_IEEE,5045545f-4945-4454-952e-6b696361645f,rev?*
G04 #@! TF.SameCoordinates,Original*
G04 #@! TF.FileFunction,Copper,L1,Top*
G04 #@! TF.FilePolarity,Positive*
%FSLAX46Y46*%
G04 Gerber Fmt 4.6, Leading zero omitted, Abs format (unit mm)*
G04 Created by KiCad (PCBNEW (5.1.2)-1) date 2019-09-24 21:04:57*
%MOMM*%
%LPD*%
G04 APERTURE LIST*
%ADD10C,4.064000*%
%ADD11O,2.000000X1.200000*%
%ADD12O,1.700000X1.700000*%
%ADD13R,1.700000X1.700000*%
%ADD14C,1.727200*%
%ADD15O,1.727200X1.727200*%
%ADD16O,1.727200X2.032000*%
%ADD17C,0.250000*%
G04 APERTURE END LIST*
D10*
X2361001Y-2361001D03*
D11*
X117715000Y-83370000D03*
X113425000Y-83370000D03*
X117715000Y-85530000D03*
X113425000Y-85530000D03*
X117715000Y-87690000D03*
X113425000Y-87690000D03*
X117715000Y-89850000D03*
X113425000Y-89850000D03*
X117715000Y-92010000D03*
X113425000Y-92010000D03*
X117715000Y-94170000D03*
X113425000Y-94170000D03*
X117715000Y-96330000D03*
X113425000Y-96330000D03*
X117715000Y-98490000D03*
X113425000Y-98490000D03*
X117715000Y-100650000D03*
X113425000Y-100650000D03*
X117715000Y-102810000D03*
X113425000Y-102810000D03*
X117715000Y-104970000D03*
X113425000Y-104970000D03*
X117715000Y-107130000D03*
X113425000Y-107130000D03*
D12*
X187960000Y-110490000D03*
X187960000Y-107950000D03*
X187960000Y-105410000D03*
X187960000Y-102870000D03*
X187960000Y-100330000D03*
D13*
X187960000Y-97790000D03*
D14*
X197358000Y-114046000D03*
D15*
X199898000Y-114046000D03*
X197358000Y-111506000D03*
X199898000Y-111506000D03*
X197358000Y-108966000D03*
X199898000Y-108966000D03*
X197358000Y-106426000D03*
X199898000Y-106426000D03*
X197358000Y-103886000D03*
X199898000Y-103886000D03*
X197358000Y-101346000D03*
X199898000Y-101346000D03*
X197358000Y-98806000D03*
X199898000Y-98806000D03*
X197358000Y-96266000D03*
X199898000Y-96266000D03*
X197358000Y-93726000D03*
X199898000Y-93726000D03*
X197358000Y-91186000D03*
X199898000Y-91186000D03*
X197358000Y-88646000D03*
X199898000Y-88646000D03*
X197358000Y-86106000D03*
X199898000Y-86106000D03*
X197358000Y-83566000D03*
X199898000Y-83566000D03*
X197358000Y-81026000D03*
X199898000Y-81026000D03*
X197358000Y-78486000D03*
X199898000Y-78486000D03*
X197358000Y-75946000D03*
X199898000Y-75946000D03*
X197358000Y-73406000D03*
X199898000Y-73406000D03*
X197358000Y-70866000D03*
X199898000Y-70866000D03*
D16*
X131318000Y-119126000D03*
X133858000Y-119126000D03*
X136398000Y-119126000D03*
X138938000Y-119126000D03*
X141478000Y-119126000D03*
X144018000Y-119126000D03*
X146558000Y-119126000D03*
X149098000Y-119126000D03*
X154178000Y-119126000D03*
X156718000Y-119126000D03*
X159258000Y-119126000D03*
X161798000Y-119126000D03*
X164338000Y-119126000D03*
X166878000Y-119126000D03*
X169418000Y-119126000D03*
X171958000Y-119126000D03*
X177038000Y-119126000D03*
X179578000Y-119126000D03*
X182118000Y-119126000D03*
X184658000Y-119126000D03*
X187198000Y-119126000D03*
X189738000Y-119126000D03*
X192278000Y-119126000D03*
X194818000Y-119126000D03*
X122174000Y-70866000D03*
X124714000Y-70866000D03*
X127254000Y-70866000D03*
X129794000Y-70866000D03*
X132334000Y-70866000D03*
X134874000Y-70866000D03*
X137414000Y-70866000D03*
X139954000Y-70866000D03*
X142494000Y-70866000D03*
X145034000Y-70866000D03*
X149098000Y-70866000D03*
X151638000Y-70866000D03*
X154178000Y-70866000D03*
X156718000Y-70866000D03*
X159258000Y-70866000D03*
X161798000Y-70866000D03*
X164338000Y-70866000D03*
X166878000Y-70866000D03*
X171958000Y-70866000D03*
X174498000Y-70866000D03*
X177038000Y-70866000D03*
X179578000Y-70866000D03*
X182118000Y-70866000D03*
X184658000Y-70866000D03*
X187198000Y-70866000D03*
X189738000Y-70866000D03*
D10*
X115570000Y-119126000D03*
X169418000Y-114046000D03*
X199898000Y-119126000D03*
X115570000Y-70866000D03*
X193548000Y-70866000D03*
D17*
X191516000Y-111506000D02*
X197358000Y-111506000D01*
X187960000Y-107950000D02*
X191516000Y-111506000D01*
X199034401Y-112369599D02*
X199898000Y-111506000D01*
X198709399Y-112694601D02*
X199034401Y-112369599D01*
X190164601Y-112694601D02*
X198709399Y-112694601D01*
X187960000Y-110490000D02*
X190164601Y-112694601D01*
X191262000Y-102870000D02*
X197358000Y-108966000D01*
X187960000Y-102870000D02*
X191262000Y-102870000D01*
X199034401Y-109829599D02*
X199898000Y-108966000D01*
X198709399Y-110154601D02*
X199034401Y-109829599D01*
X192704601Y-110154601D02*
X198709399Y-110154601D01*
X187960000Y-105410000D02*
X192704601Y-110154601D01*
X118965000Y-104970000D02*
X119405000Y-105410000D01*
X117715000Y-104970000D02*
X118965000Y-104970000D01*
X119405000Y-105410000D02*
X152400000Y-105410000D01*
X166624000Y-91186000D02*
X197358000Y-91186000D01*
X152400000Y-105410000D02*
X166624000Y-91186000D01*
X118965000Y-107130000D02*
X119415000Y-106680000D01*
X117715000Y-107130000D02*
X118965000Y-107130000D01*
X119415000Y-106680000D02*
X152400000Y-106680000D01*
X199034401Y-92049599D02*
X199898000Y-91186000D01*
X198709399Y-92374601D02*
X199034401Y-92049599D01*
X166705399Y-92374601D02*
X198709399Y-92374601D01*
X152400000Y-106680000D02*
X166705399Y-92374601D01*
X118115000Y-100650000D02*
X120335000Y-102870000D01*
X117715000Y-100650000D02*
X118115000Y-100650000D01*
X120335000Y-102870000D02*
X152400000Y-102870000D01*
X166624000Y-88646000D02*
X197358000Y-88646000D01*
X152400000Y-102870000D02*
X166624000Y-88646000D01*
X199034401Y-89509599D02*
X199898000Y-88646000D01*
X117715000Y-102810000D02*
X118115000Y-102810000D01*
X118115000Y-102810000D02*
X119445000Y-104140000D01*
X119445000Y-104140000D02*
X152400000Y-104140000D01*
X152400000Y-104140000D02*
X166705399Y-89834601D01*
X166705399Y-89834601D02*
X198709399Y-89834601D01*
X198709399Y-89834601D02*
X199034401Y-89509599D01*
X118115000Y-98490000D02*
X136480389Y-80124611D01*
X117715000Y-98490000D02*
X118115000Y-98490000D01*
X196456611Y-80124611D02*
X197358000Y-81026000D01*
X136480389Y-80124611D02*
X196456611Y-80124611D01*
X118115000Y-94170000D02*
X133350000Y-78935000D01*
X117715000Y-94170000D02*
X118115000Y-94170000D01*
X196136686Y-78486000D02*
X197358000Y-78486000D01*
X195687686Y-78935000D02*
X196136686Y-78486000D01*
X133350000Y-78935000D02*
X195687686Y-78935000D01*
X199034401Y-79349599D02*
X199898000Y-78486000D01*
X198709399Y-79674601D02*
X199034401Y-79349599D01*
X134770399Y-79674601D02*
X198709399Y-79674601D01*
X118115000Y-96330000D02*
X134770399Y-79674601D01*
X117715000Y-96330000D02*
X118115000Y-96330000D01*
X118115000Y-89850000D02*
X130495000Y-77470000D01*
X117715000Y-89850000D02*
X118115000Y-89850000D01*
X195834000Y-77470000D02*
X197358000Y-75946000D01*
X130495000Y-77470000D02*
X195834000Y-77470000D01*
X118115000Y-92010000D02*
X132080000Y-78045000D01*
X117715000Y-92010000D02*
X118115000Y-92010000D01*
X199034401Y-76809599D02*
X199898000Y-75946000D01*
X198709399Y-77134601D02*
X199034401Y-76809599D01*
X196805809Y-77134601D02*
X198709399Y-77134601D01*
X195895410Y-78045000D02*
X196805809Y-77134601D01*
X132080000Y-78045000D02*
X195895410Y-78045000D01*
X118965000Y-85530000D02*
X129540000Y-74955000D01*
X117715000Y-85530000D02*
X118965000Y-85530000D01*
X195809000Y-74955000D02*
X197358000Y-73406000D01*
X129540000Y-74955000D02*
X195809000Y-74955000D01*
X117715000Y-87690000D02*
X119320000Y-87690000D01*
X118115000Y-87690000D02*
X129605000Y-76200000D01*
X117715000Y-87690000D02*
X118115000Y-87690000D01*
X199034401Y-74269599D02*
X199898000Y-73406000D01*
X198709399Y-74594601D02*
X199034401Y-74269599D01*
X196805809Y-74594601D02*
X198709399Y-74594601D01*
X195200410Y-76200000D02*
X196805809Y-74594601D01*
X129605000Y-76200000D02*
X195200410Y-76200000D01*
X186757919Y-100330000D02*
X187960000Y-100330000D01*
X160121600Y-100330000D02*
X186757919Y-100330000D01*
X141478000Y-118973600D02*
X160121600Y-100330000D01*
X141478000Y-119126000D02*
X141478000Y-118973600D01*
X200761599Y-71729599D02*
X199898000Y-70866000D01*
X201086601Y-76516529D02*
X201086601Y-72054601D01*
X200660000Y-76943130D02*
X201086601Y-76516529D01*
X200660000Y-77470000D02*
X200660000Y-76943130D01*
X201086601Y-77896601D02*
X200660000Y-77470000D01*
X200660000Y-82023130D02*
X201086601Y-81596529D01*
X201086601Y-81596529D02*
X201086601Y-77896601D01*
X201086601Y-82976601D02*
X200660000Y-82550000D01*
X201086601Y-86676529D02*
X201086601Y-82976601D01*
X200660000Y-87103130D02*
X201086601Y-86676529D01*
X200660000Y-87630000D02*
X200660000Y-87103130D01*
X201086601Y-88056601D02*
X200660000Y-87630000D01*
X201086601Y-99376529D02*
X201086601Y-88056601D01*
X200660000Y-82550000D02*
X200660000Y-82023130D01*
X200468529Y-99994601D02*
X201086601Y-99376529D01*
X201086601Y-72054601D02*
X200761599Y-71729599D01*
X189497480Y-99994601D02*
X200468529Y-99994601D01*
X189162081Y-100330000D02*
X189497480Y-99994601D01*
X187960000Y-100330000D02*
X189162081Y-100330000D01*
X199898000Y-70866000D02*
X197358000Y-70866000D01*
M02*
