G04 #@! TF.GenerationSoftware,KiCad,Pcbnew,(5.1.2)-1*
G04 #@! TF.CreationDate,2019-09-24T21:04:57+01:00*
G04 #@! TF.ProjectId,PET_IEEE,5045545f-4945-4454-952e-6b696361645f,rev?*
G04 #@! TF.SameCoordinates,Original*
G04 #@! TF.FileFunction,Copper,L2,Bot*
G04 #@! TF.FilePolarity,Positive*
%FSLAX46Y46*%
G04 Gerber Fmt 4.6, Leading zero omitted, Abs format (unit mm)*
G04 Created by KiCad (PCBNEW (5.1.2)-1) date 2019-09-24 21:04:57*
%MOMM*%
%LPD*%
G04 APERTURE LIST*
%ADD10C,4.064000*%
%ADD11O,2.000000X1.200000*%
%ADD12O,1.700000X1.700000*%
%ADD13R,1.700000X1.700000*%
%ADD14C,1.727200*%
%ADD15O,1.727200X1.727200*%
%ADD16O,1.727200X2.032000*%
%ADD17C,0.250000*%
G04 APERTURE END LIST*
D10*
X2361001Y-2361001D03*
D11*
X117715000Y-83370000D03*
X113425000Y-83370000D03*
X117715000Y-85530000D03*
X113425000Y-85530000D03*
X117715000Y-87690000D03*
X113425000Y-87690000D03*
X117715000Y-89850000D03*
X113425000Y-89850000D03*
X117715000Y-92010000D03*
X113425000Y-92010000D03*
X117715000Y-94170000D03*
X113425000Y-94170000D03*
X117715000Y-96330000D03*
X113425000Y-96330000D03*
X117715000Y-98490000D03*
X113425000Y-98490000D03*
X117715000Y-100650000D03*
X113425000Y-100650000D03*
X117715000Y-102810000D03*
X113425000Y-102810000D03*
X117715000Y-104970000D03*
X113425000Y-104970000D03*
X117715000Y-107130000D03*
X113425000Y-107130000D03*
D12*
X187960000Y-110490000D03*
X187960000Y-107950000D03*
X187960000Y-105410000D03*
X187960000Y-102870000D03*
X187960000Y-100330000D03*
D13*
X187960000Y-97790000D03*
D14*
X197358000Y-114046000D03*
D15*
X199898000Y-114046000D03*
X197358000Y-111506000D03*
X199898000Y-111506000D03*
X197358000Y-108966000D03*
X199898000Y-108966000D03*
X197358000Y-106426000D03*
X199898000Y-106426000D03*
X197358000Y-103886000D03*
X199898000Y-103886000D03*
X197358000Y-101346000D03*
X199898000Y-101346000D03*
X197358000Y-98806000D03*
X199898000Y-98806000D03*
X197358000Y-96266000D03*
X199898000Y-96266000D03*
X197358000Y-93726000D03*
X199898000Y-93726000D03*
X197358000Y-91186000D03*
X199898000Y-91186000D03*
X197358000Y-88646000D03*
X199898000Y-88646000D03*
X197358000Y-86106000D03*
X199898000Y-86106000D03*
X197358000Y-83566000D03*
X199898000Y-83566000D03*
X197358000Y-81026000D03*
X199898000Y-81026000D03*
X197358000Y-78486000D03*
X199898000Y-78486000D03*
X197358000Y-75946000D03*
X199898000Y-75946000D03*
X197358000Y-73406000D03*
X199898000Y-73406000D03*
X197358000Y-70866000D03*
X199898000Y-70866000D03*
D16*
X131318000Y-119126000D03*
X133858000Y-119126000D03*
X136398000Y-119126000D03*
X138938000Y-119126000D03*
X141478000Y-119126000D03*
X144018000Y-119126000D03*
X146558000Y-119126000D03*
X149098000Y-119126000D03*
X154178000Y-119126000D03*
X156718000Y-119126000D03*
X159258000Y-119126000D03*
X161798000Y-119126000D03*
X164338000Y-119126000D03*
X166878000Y-119126000D03*
X169418000Y-119126000D03*
X171958000Y-119126000D03*
X177038000Y-119126000D03*
X179578000Y-119126000D03*
X182118000Y-119126000D03*
X184658000Y-119126000D03*
X187198000Y-119126000D03*
X189738000Y-119126000D03*
X192278000Y-119126000D03*
X194818000Y-119126000D03*
X122174000Y-70866000D03*
X124714000Y-70866000D03*
X127254000Y-70866000D03*
X129794000Y-70866000D03*
X132334000Y-70866000D03*
X134874000Y-70866000D03*
X137414000Y-70866000D03*
X139954000Y-70866000D03*
X142494000Y-70866000D03*
X145034000Y-70866000D03*
X149098000Y-70866000D03*
X151638000Y-70866000D03*
X154178000Y-70866000D03*
X156718000Y-70866000D03*
X159258000Y-70866000D03*
X161798000Y-70866000D03*
X164338000Y-70866000D03*
X166878000Y-70866000D03*
X171958000Y-70866000D03*
X174498000Y-70866000D03*
X177038000Y-70866000D03*
X179578000Y-70866000D03*
X182118000Y-70866000D03*
X184658000Y-70866000D03*
X187198000Y-70866000D03*
X189738000Y-70866000D03*
D10*
X115570000Y-119126000D03*
X169418000Y-114046000D03*
X199898000Y-119126000D03*
X115570000Y-70866000D03*
X193548000Y-70866000D03*
D17*
X113425000Y-85530000D02*
X113425000Y-87690000D01*
X113425000Y-87690000D02*
X113425000Y-89850000D01*
X113425000Y-89850000D02*
X113425000Y-92010000D01*
X113425000Y-92010000D02*
X113425000Y-94170000D01*
X113425000Y-94170000D02*
X113425000Y-96330000D01*
X142829390Y-117784990D02*
X144018000Y-118973600D01*
X122371829Y-117784990D02*
X142829390Y-117784990D01*
X112099990Y-107513151D02*
X122371829Y-117784990D01*
X144018000Y-118973600D02*
X144018000Y-119126000D01*
X113025000Y-96330000D02*
X112099990Y-97255010D01*
X112099990Y-97255010D02*
X112099990Y-107513151D01*
X113425000Y-96330000D02*
X113025000Y-96330000D01*
X144018000Y-119126000D02*
X146558000Y-119126000D01*
X186860000Y-97790000D02*
X187960000Y-97790000D01*
X167741600Y-97790000D02*
X186860000Y-97790000D01*
X146558000Y-118973600D02*
X167741600Y-97790000D01*
X146558000Y-119126000D02*
X146558000Y-118973600D01*
X113425000Y-85530000D02*
X113425000Y-83370000D01*
X129794000Y-71018400D02*
X129794000Y-70866000D01*
X128605390Y-72207010D02*
X129794000Y-71018400D01*
X124987990Y-72207010D02*
X128605390Y-72207010D01*
X113825000Y-83370000D02*
X124987990Y-72207010D01*
X113425000Y-83370000D02*
X113825000Y-83370000D01*
X196494401Y-113182401D02*
X197358000Y-114046000D01*
X196169399Y-112857399D02*
X196494401Y-113182401D01*
X196169399Y-104899399D02*
X196169399Y-112857399D01*
X189060000Y-97790000D02*
X196169399Y-104899399D01*
X187960000Y-97790000D02*
X189060000Y-97790000D01*
X197358000Y-114046000D02*
X199898000Y-114046000D01*
X136144000Y-86106000D02*
X197358000Y-86106000D01*
X118514990Y-103735010D02*
X136144000Y-86106000D01*
X115059990Y-103735010D02*
X118514990Y-103735010D01*
X113425000Y-104970000D02*
X113825000Y-104970000D01*
X113825000Y-104970000D02*
X115059990Y-103735010D01*
X115909990Y-105895010D02*
X118894990Y-105895010D01*
X113425000Y-107130000D02*
X114675000Y-107130000D01*
X114675000Y-107130000D02*
X115909990Y-105895010D01*
X118894990Y-105895010D02*
X137160000Y-87630000D01*
X199034401Y-86969599D02*
X199898000Y-86106000D01*
X198709399Y-87294601D02*
X199034401Y-86969599D01*
X173055399Y-87294601D02*
X198709399Y-87294601D01*
X172720000Y-87630000D02*
X173055399Y-87294601D01*
X137160000Y-87630000D02*
X172720000Y-87630000D01*
X115909990Y-99415010D02*
X120294990Y-99415010D01*
X113425000Y-100650000D02*
X114675000Y-100650000D01*
X114675000Y-100650000D02*
X115909990Y-99415010D01*
X136144000Y-83566000D02*
X197358000Y-83566000D01*
X120294990Y-99415010D02*
X136144000Y-83566000D01*
X115081829Y-101575010D02*
X119404990Y-101575010D01*
X113425000Y-102810000D02*
X113846839Y-102810000D01*
X113846839Y-102810000D02*
X115081829Y-101575010D01*
X199034401Y-84429599D02*
X199898000Y-83566000D01*
X198709399Y-84754601D02*
X199034401Y-84429599D01*
X136225399Y-84754601D02*
X198709399Y-84754601D01*
X119404990Y-101575010D02*
X136225399Y-84754601D01*
M02*
